<svg width="29" height="29" viewBox="0 0 29 29" fill="none" xmlns="http://www.w3.org/2000/svg" class="red">
<path d="M14.4998 19.3332C17.1692 19.3332 19.3332 17.1692 19.3332 14.4998C19.3332 11.8305 17.1692 9.6665 14.4998 9.6665C11.8305 9.6665 9.6665 11.8305 9.6665 14.4998C9.6665 17.1692 11.8305 19.3332 14.4998 19.3332Z" fill="white"/>
<path d="M15.7082 4.91655V2.4165H13.2915V4.91655C11.1652 5.18804 9.18917 6.15771 7.67344 7.67344C6.15771 9.18917 5.18804 11.1652 4.91655 13.2915H2.4165V15.7082H4.91655C5.18764 17.8346 6.15719 19.8109 7.67299 21.3267C9.1888 22.8425 11.165 23.812 13.2915 24.0831V26.5832H15.7082V24.0831C17.8347 23.8122 19.8111 22.8428 21.3269 21.3269C22.8428 19.8111 23.8122 17.8347 24.0831 15.7082H26.5832V13.2915H24.0831C23.812 11.165 22.8425 9.1888 21.3267 7.67299C19.8109 6.15719 17.8346 5.18764 15.7082 4.91655ZM14.4998 21.7498C10.5015 21.7498 7.24984 18.4982 7.24984 14.4998C7.24984 10.5015 10.5015 7.24984 14.4998 7.24984C18.4982 7.24984 21.7498 10.5015 21.7498 14.4998C21.7498 18.4982 18.4982 21.7498 14.4998 21.7498Z" fill="white"/>
</svg>
